HIERARCHY
ROOT Hips
{
     OFFSET 1.88212 96.90440 -13.34250
     CHANNELS 6 Xposition Yposition Zposition Zrotation Xrotation Yrotation
     JOINT Spine
     {
          OFFSET 0.00000 11.89050 0.00000
          CHANNELS 3 Zrotation Xrotation Yrotation
          JOINT Spine1
          {
               OFFSET -0.00000 25.65740 0.12766
               CHANNELS 3 Zrotation Xrotation Yrotation
               JOINT HEad
               {
                    OFFSET 0.00000 8.73416 0.01134
                    CHANNELS 3 Zrotation Xrotation Yrotation
                    End Site
                    {
                         OFFSET -0.29000 12.77420 2.51395
                    }
               }
               JOINT LeftShoulder1
               {
                    OFFSET 8.99000 -0.36225 -0.22000
                    CHANNELS 3 Zrotation Xrotation Yrotation
                    JOINT LeftArm
                    {
                         OFFSET 10.28270 -0.00338 0.32212
                         CHANNELS 3 Zrotation Xrotation Yrotation
                         JOINT LeftForeArm
                         {
                              OFFSET 32.76690 0.09914 -1.42434
                              CHANNELS 3 Zrotation Xrotation Yrotation
                              JOINT LeftHand
                              {
                                   OFFSET 27.56430 0.08536 1.02216
                                   CHANNELS 3 Zrotation Xrotation Yrotation
                                   End Site
                                   {
                                        OFFSET 16.74430 -0.60000 1.50291
                                   }
                              }
                         }
                    }
               }
               JOINT RightShoulder
               {
                    OFFSET -8.99000 -0.36225 -0.22000
                    CHANNELS 3 Zrotation Xrotation Yrotation
                    JOINT RightArm
                    {
                         OFFSET -10.28270 -0.00338 0.32212
                         CHANNELS 3 Zrotation Xrotation Yrotation
                         JOINT RightForeArm
                         {
                              OFFSET -32.89710 0.09914 -1.42434
                              CHANNELS 3 Zrotation Xrotation Yrotation
                              JOINT RightHand
                              {
                                   OFFSET -27.49210 0.08536 1.02216
                                   CHANNELS 3 Zrotation Xrotation Yrotation
                                   End Site
                                   {
                                        OFFSET -16.63120 -0.60000 1.50291
                                   }
                              }
                         }
                    }
               }
          }
     }
     JOINT LeftUpLeg
     {
          OFFSET 8.94580 -8.66707 0.10165
          CHANNELS 3 Zrotation Xrotation Yrotation
          JOINT LeftLeg
          {
               OFFSET 0.00000 -44.42270 1.37270
               CHANNELS 3 Zrotation Xrotation Yrotation
               JOINT LeftFoot
               {
                    OFFSET -0.25355 -42.09240 -1.46059
                    CHANNELS 3 Zrotation Xrotation Yrotation
                    JOINT LeftToes
                    {
                         OFFSET -0.04000 -4.41509 8.49910
                         CHANNELS 3 Zrotation Xrotation Yrotation
                         End Site
                         {
                              OFFSET 0.08000 -0.04745 9.77979
                         }
                    }
               }
          }
     }
     JOINT RightUpLeg
     {
          OFFSET -8.94580 -8.66707 0.10165
          CHANNELS 3 Zrotation Xrotation Yrotation
          JOINT RightLeg
          {
               OFFSET 0.00000 -44.42270 1.37270
               CHANNELS 3 Zrotation Xrotation Yrotation
               JOINT RightFoot
               {
                    OFFSET 0.25355 -42.09240 -1.46059
                    CHANNELS 3 Zrotation Xrotation Yrotation
                    JOINT RightToes
                    {
                         OFFSET 0.04000 -4.41509 8.49910
                         CHANNELS 3 Zrotation Xrotation Yrotation
                         End Site
                         {
                              OFFSET -0.08000 -0.13745 9.77979
                         }
                    }
               }
          }
     }
}
MOTION
Frames: 15
Frame Time: 0.01667
21.71202 94.85604 -354.84302 -3.51747 -6.02938 -10.49708 5.43164 9.58509 4.50885 -0.03365 0.01275 -0.01077 -35.24384 26.03858 42.07826 -1.49920 7.05136 2.86633 -116.82648 -79.13963 -93.06978 -43.27898 50.58031 -97.26920 7.88945 7.42669 2.93720 14.39054 8.82092 5.83446 59.62253 -9.66950 74.91216 24.00705 35.35714 93.81047 0.29193 9.46019 2.93620 20.15312 -14.13796 20.81367 3.73881 8.84694 -15.41988 -27.68899 -0.00484 0.03611 16.19558 7.97284 1.72969 -19.36507 13.26236 -0.52609 15.33027 9.28173 1.95127 0.55254 -0.00578 0.00456 -0.98621 -21.46358 -2.01475 
21.55441 94.20432 -354.86948 -3.49430 -6.28129 -10.26871 4.33960 9.73527 4.34681 -0.03268 0.01190 -0.01601 -33.87786 24.79522 40.72023 -7.12323 7.65981 0.91379 -108.32013 -80.41743 -88.69846 -41.05210 49.32232 -98.96026 12.80465 3.07715 5.91404 9.56435 8.28316 2.48116 65.23078 -6.42700 78.26675 25.79900 34.70200 92.37088 8.65661 11.41795 7.39011 20.86425 -13.99263 19.63363 3.18445 11.22406 -12.31149 -25.40511 -0.04278 0.04435 18.40976 14.58266 -2.83562 -20.15132 13.85313 0.06937 17.37230 8.79901 0.08031 -0.73262 -0.01575 0.00445 -6.38546 -27.55772 1.33521 
21.46856 93.67416 -354.81915 -3.41900 -6.59675 -10.05379 2.78261 9.91603 3.95277 -0.02782 0.01162 -0.02009 -32.04657 23.28068 39.14244 -13.67963 8.51103 -2.41864 -91.99795 -83.17901 -76.61600 -38.36590 47.43301 -101.19210 8.70950 6.53243 3.19510 4.26842 7.77528 -2.37020 71.38925 -2.04965 82.23169 28.71580 33.80727 90.24133 12.98444 13.01436 9.63366 21.65772 -13.76653 18.13976 2.45908 14.27651 -7.83894 -22.74231 -0.08277 0.05360 19.77025 16.94519 -7.91689 -21.25242 14.19786 1.03357 19.57459 8.45231 -2.10617 -1.95361 -0.01583 -0.00020 -13.13214 -35.50892 4.09682 
21.46662 93.20230 -354.66769 -3.24835 -7.04260 -9.97639 -0.05902 10.29765 2.56546 -0.07411 0.04104 -0.07434 -28.83240 20.72705 37.13588 -12.83297 8.06002 -1.75504 -67.33956 -78.51380 -47.26522 -34.82891 42.90735 -103.35119 -8.29951 27.60755 -6.32989 0.24165 6.20390 -11.76017 77.48346 5.26550 87.23331 35.20873 32.72025 86.04315 9.38644 13.28578 8.14309 22.92975 -13.33770 15.71629 0.99563 18.82986 0.92258 -19.36390 -0.18413 0.11765 16.76401 11.01014 -13.47257 -22.55205 14.46093 2.23342 21.66372 8.26682 -4.32815 -3.06431 -0.01484 -0.00205 -10.48325 -33.67327 5.00420 
21.58696 92.73183 -354.38434 -3.01958 -7.60788 -10.08337 -3.50174 11.16354 0.45845 -0.05280 0.03847 -0.08898 -24.85779 17.41584 34.61734 -10.93478 7.06904 -0.45749 -59.04781 -70.76056 -32.95940 -19.39510 39.49427 -116.85381 -17.09494 38.99227 -7.66905 2.82958 5.61063 -10.33144 77.90042 3.33170 89.79728 38.83618 32.25375 83.56641 11.23471 14.23303 9.83240 24.62115 -12.83657 12.47400 -2.13546 23.74235 13.10653 -16.89565 -0.17625 0.08394 15.86163 8.00224 -21.61144 -24.04643 14.66619 3.68336 23.63678 8.27644 -6.51770 -4.01224 -0.01228 -0.00366 -11.94714 -36.33126 6.39648 
21.90011 92.27518 -353.92270 -2.77402 -8.28767 -10.38515 -7.03135 12.48840 -2.44084 -0.01979 0.03326 -0.09529 -20.52760 13.54411 32.00418 -7.42069 5.69450 1.33211 -58.58133 -61.37539 -26.82097 -1.68117 30.47347 -129.18488 -23.99776 46.00980 -5.62541 5.63534 4.88807 -7.93257 78.22042 2.31258 91.36943 35.06348 31.63030 84.77359 9.49463 9.65021 10.43547 26.64120 -12.35283 8.47434 -7.23207 28.11648 28.19768 -14.49737 -0.19408 0.05994 12.76351 4.51620 -30.00678 -25.69467 14.60313 5.35489 25.87951 9.42966 -9.29206 -20.77772 -0.13875 -0.24077 4.91516 -36.89443 7.74172 
22.52939 91.67506 -353.25986 -2.58825 -9.04421 -10.88619 -9.68166 13.47870 -5.17385 0.02989 0.00193 0.01380 -16.31977 10.44267 28.63110 3.57316 4.33394 -6.58216 -59.99105 -58.55233 -15.54535 13.11191 16.38321 -134.30217 -30.03472 49.94343 -2.28538 8.40348 4.80997 -5.73379 78.05774 1.62680 92.24206 32.93397 31.48529 85.76259 2.80582 24.63805 12.75146 28.88389 -12.06664 3.76258 -14.34593 31.16239 43.66423 -13.50030 -0.04417 0.04626 11.13747 2.81158 -37.12382 -27.44624 14.29213 7.19808 28.10999 10.40398 -12.07642 -37.28685 -0.11982 -0.26744 20.53834 -37.58003 8.69851 
23.48699 91.05473 -352.44763 -2.49579 -9.82360 -11.57155 -11.34075 14.13385 -7.72133 0.03191 0.00383 0.02109 -12.17750 7.92860 24.73523 6.03439 4.60213 -3.42556 -63.39635 -47.26180 -19.97843 26.17903 2.03748 -130.23372 -35.25260 52.22393 1.01477 10.85874 5.23630 -3.70381 77.63182 1.31217 92.49753 26.96246 28.23630 89.46225 11.59962 4.79900 12.18988 31.11979 -12.00733 -1.63569 -21.45143 31.69633 56.68137 -15.18997 0.07502 -0.06517 6.00512 15.77264 -30.03608 -29.94521 12.70953 9.08510 31.70960 13.20885 -16.68247 -21.66548 0.30008 0.41415 -1.77155 -23.52648 1.18128 
24.76949 90.43701 -351.58755 -2.54443 -10.55383 -12.42726 -10.96832 14.75892 -11.15580 0.09904 0.04697 -0.04370 -9.05278 5.29380 21.22037 6.55351 4.93009 0.40236 -64.14735 -38.60663 -26.54573 39.81449 -6.70176 -119.74053 -39.81661 53.90001 3.67125 11.51219 5.73901 -1.01490 81.37052 -0.26690 91.83252 26.11188 30.76292 90.26305 -2.14695 27.35905 11.81719 32.92327 -12.05968 -7.74111 -29.04196 30.42910 69.33467 -16.53115 0.05924 -0.00449 11.04312 8.57895 -40.15459 -32.85085 10.09144 10.58633 35.65644 16.92410 -20.95475 -5.64318 0.40923 0.31528 -13.81916 -32.21741 6.94543 
26.34795 89.80756 -350.78012 -2.76219 -11.16148 -13.44311 -8.78807 15.30631 -15.19046 0.08600 0.06111 -0.02943 -6.27660 2.58706 18.13202 5.24688 5.11163 4.40845 -63.20784 -33.75341 -34.37016 53.61668 -8.31777 -107.90934 -43.63729 55.69278 5.23045 19.15763 6.20475 -6.71584 75.06008 6.58191 93.55746 25.86192 32.50982 90.39306 12.28059 13.12696 6.02857 34.07919 -12.07751 -14.51686 -36.13941 27.34261 81.15822 -17.64002 0.03812 -0.00336 11.41053 10.78245 -40.49642 -35.79498 6.75024 11.30043 39.98330 21.27455 -26.91962 10.35437 0.73815 0.17822 -29.51835 -15.06840 3.84997 
28.18364 89.14152 -350.08649 -3.14046 -11.60003 -14.60228 -5.14526 15.74762 -19.62741 0.06614 0.06823 -0.02678 -3.57227 -0.27624 16.05192 2.29563 4.81703 8.31076 -61.39986 -32.21932 -42.84678 66.30085 -4.30544 -98.17916 -46.46479 58.02324 5.36244 15.55137 6.61970 -2.38098 77.85032 5.52814 92.98158 25.85835 33.58714 90.15611 3.47989 19.57829 9.97664 34.80542 -11.98003 -20.72223 -41.80146 23.33914 90.81129 -18.66819 0.02793 -0.00626 13.42611 7.13083 -44.69593 -38.43541 3.00484 10.94011 43.96458 26.56158 -31.79812 26.61899 0.69433 -0.05328 -42.00173 -26.15199 10.90550 
30.20457 88.43661 -349.52255 -3.62815 -11.86163 -15.87769 -1.88671 15.91781 -23.22221 -0.01712 0.00406 0.03065 -0.81539 -2.64196 14.50012 3.19458 8.02124 0.43247 -61.24604 -43.58392 -47.83596 77.53099 2.25219 -92.31133 -48.38092 60.98355 3.83313 12.43021 6.88342 1.06168 79.97587 4.97014 92.49450 25.82183 34.33199 89.75508 11.70921 12.06144 7.12957 35.24492 -11.74411 -26.26239 -46.04082 18.88961 98.49786 -19.66029 0.02131 -0.00776 14.49915 5.27651 -46.37274 -40.53770 -0.81012 9.39001 47.06565 32.39533 -35.40315 42.69426 0.54874 -0.21881 -55.35792 -23.04091 12.35990 
32.34472 87.76732 -349.02948 -4.18700 -11.97857 -17.21185 0.94549 15.98834 -26.06508 -0.02665 0.00467 0.02901 1.80919 -4.66781 13.52984 -0.33185 7.39377 4.08257 -58.58440 -44.46849 -56.13838 88.31174 9.41447 -90.65080 -34.64897 59.40553 1.41007 9.57539 6.90712 3.87534 81.72786 4.63112 91.97414 25.76494 34.69585 89.30579 6.63906 15.91514 9.10233 35.49514 -11.33217 -31.11527 -49.02788 14.31302 104.52962 -20.60981 0.01593 -0.00852 15.78937 1.61784 -48.74381 -42.12673 -4.82313 6.65251 52.27712 36.18561 -38.85960 16.11539 -0.34541 0.29360 -27.69721 -24.86090 15.99595 
34.53161 87.20825 -348.58017 -4.74581 -11.98424 -18.56319 3.26702 16.06129 -28.21607 -0.03493 0.00458 0.02509 4.04569 -5.83354 14.35487 -3.20074 6.68335 6.72792 -56.87481 -45.69558 -61.28796 100.09139 13.25251 -92.03926 -43.49584 64.61303 1.12229 6.88247 6.75473 6.03280 84.60249 2.17472 88.13319 24.33765 34.34846 88.87838 13.99468 11.32269 11.67510 35.61798 -10.73652 -35.24641 -50.99775 9.82422 109.21767 -21.46159 0.01155 -0.00763 13.29834 -16.19487 -59.79325 -43.29068 -8.42290 2.83324 56.26251 38.64157 -41.14922 -11.88051 -0.41974 0.15941 16.59195 -20.97852 18.88191 
36.70287 86.81325 -348.11938 -5.25303 -11.93950 -19.86247 4.92296 16.04706 -29.30007 -0.04185 0.00694 0.02067 5.48459 -6.08472 16.06705 -6.06792 6.11987 8.31699 -55.90557 -46.35660 -64.15260 113.26199 13.41987 -95.96494 -33.28917 63.27870 -5.76760 4.38828 6.63811 7.52056 87.42326 -1.82946 82.65044 23.84298 36.21034 91.68204 11.77510 12.80382 14.73959 35.58969 -9.40870 -37.68734 -51.64473 6.03326 111.86269 -22.14611 0.00728 -0.00627 16.85850 -11.13329 -55.50656 -43.92846 -11.73433 -1.89886 62.23488 41.37314 -43.24514 -0.13754 0.07303 0.09682 -7.85695 -23.58983 19.04645 
